<?xml version="1.0" standalone="no"?>
<!DOCTYPE svg PUBLIC "-//W3C//DTD SVG 20010904//EN"
 "http://www.w3.org/TR/2001/REC-SVG-20010904/DTD/svg10.dtd">
<svg version="1.0" xmlns="http://www.w3.org/2000/svg"
 width="1254.000000pt" height="516.000000pt" viewBox="0 0 1254.000000 516.000000"
 preserveAspectRatio="xMidYMid meet">
<g transform="translate(0.000000,516.000000) scale(0.100000,-0.100000)"
fill="#202530" stroke="none">
<path d="M4682 4675 c-16 -13 -98 -103 -183 -200 -84 -96 -156 -175 -159 -175
-3 0 -75 81 -160 181 -85 99 -167 187 -182 195 -32 17 -107 18 -142 3 -33 -15
-427 -460 -448 -507 -10 -20 -17 -50 -17 -67 1 -74 -10 -60 594 -755 630 -724
866 -1001 863 -1010 -2 -5 -96 -114 -209 -242 -807 -911 -849 -960 -860 -1000
-13 -51 -4 -109 24 -145 42 -55 382 -449 410 -475 36 -35 83 -44 129 -25 24
10 89 75 203 201 92 103 171 185 176 184 4 -2 81 -88 171 -193 243 -283 237
-283 493 9 88 101 165 181 170 179 6 -3 80 -88 165 -189 180 -213 216 -238
295 -202 15 7 180 185 368 397 188 213 540 609 782 881 243 272 449 506 457
520 28 43 32 93 10 142 -10 24 -82 115 -158 203 -77 88 -320 369 -539 625
-220 256 -552 641 -739 855 -186 215 -379 437 -429 494 -113 131 -170 157
-242 113 -16 -10 -100 -98 -185 -195 -85 -96 -160 -176 -166 -176 -6 -1 -84
84 -173 187 -88 104 -172 194 -186 200 -44 20 -100 15 -133 -13z m-676 -200
c366 -426 812 -942 1011 -1171 l243 -278 -28 -33 c-70 -84 -168 -194 -178
-198 -10 -5 -50 40 -570 643 -154 179 -389 451 -522 604 -134 154 -241 285
-240 292 5 20 188 224 201 224 7 0 44 -37 83 -83z m1143 -366 c203 -234 497
-574 655 -756 157 -181 285 -333 284 -337 -7 -18 -195 -227 -205 -227 -6 -1
-186 202 -400 451 -213 248 -511 592 -660 765 -150 173 -273 318 -273 322 0 4
45 58 101 120 84 93 103 110 116 100 8 -7 180 -204 382 -438z m792 42 c188
-219 484 -561 658 -761 174 -200 318 -368 319 -373 5 -13 -198 -240 -209 -233
-5 3 -136 152 -291 332 -155 180 -451 522 -658 760 -206 239 -375 439 -375
444 0 16 188 228 202 228 7 0 166 -179 354 -397z m-387 -1464 c53 -61 96 -118
94 -125 -2 -7 -174 -206 -384 -441 -209 -235 -490 -552 -624 -703 -133 -151
-265 -298 -293 -327 l-50 -51 -96 110 c-53 61 -96 119 -96 128 0 10 162 199
360 420 198 222 499 560 668 751 169 192 311 349 316 349 4 0 51 -50 105 -111z
m821 6 c43 -49 87 -100 98 -112 l19 -22 -129 -143 c-71 -79 -250 -280 -398
-448 -506 -573 -827 -931 -835 -928 -15 6 -202 228 -198 237 9 24 1342 1512
1352 1509 7 -2 48 -43 91 -93z m849 -21 c89 -104 97 -117 84 -132 -8 -9 -213
-240 -454 -512 -242 -272 -540 -609 -663 -748 -215 -243 -225 -253 -242 -235
-35 37 -189 218 -189 223 0 3 129 149 286 325 282 317 886 997 1000 1127 32
37 64 67 69 67 6 0 54 -52 109 -115z"/>
<path d="M11735 2985 c-158 -33 -252 -109 -289 -235 -33 -110 -16 -206 50
-279 55 -61 117 -89 312 -141 202 -54 251 -73 293 -116 32 -33 34 -39 34 -102
0 -86 -18 -115 -93 -150 -50 -23 -70 -26 -162 -27 -157 0 -283 44 -381 132
l-38 35 -41 -64 -40 -63 37 -32 c52 -45 160 -101 241 -125 40 -11 112 -22 177
-25 224 -11 384 62 447 205 28 61 28 182 0 244 -47 107 -137 158 -384 220
-267 66 -315 100 -306 217 5 70 32 113 91 143 81 41 268 41 361 -1 25 -10 65
-38 89 -60 l45 -41 36 61 c20 33 36 64 36 69 0 5 -19 22 -42 38 -144 99 -307
132 -473 97z"/>
<path d="M720 2404 c-135 -322 -246 -590 -248 -595 -2 -5 34 -9 80 -9 l84 0
74 180 73 180 244 -2 245 -3 72 -175 73 -175 81 -3 c45 -2 82 1 82 5 0 4 -110
271 -244 593 l-243 585 -64 3 -64 3 -245 -587z m409 128 c50 -123 91 -227 91
-233 0 -5 -79 -9 -195 -9 -107 0 -195 3 -195 7 0 22 194 473 201 466 4 -4 48
-108 98 -231z"/>
<path d="M1780 2395 l0 -595 75 0 75 0 0 210 0 210 158 0 157 0 133 -210 133
-210 90 0 89 0 -23 38 c-14 20 -77 119 -141 220 -64 101 -116 187 -116 191 0
4 15 13 34 19 52 19 129 93 158 155 98 200 18 442 -180 539 -46 22 -56 23
-344 26 l-298 3 0 -596z m601 420 c24 -17 57 -53 74 -80 27 -44 30 -57 30
-129 0 -87 -14 -126 -64 -179 -50 -54 -63 -57 -286 -57 l-205 0 0 233 c0 129
3 237 7 241 4 4 96 6 205 4 l196 -3 43 -30z"/>
<path d="M2780 2920 l0 -70 205 0 205 0 0 -525 0 -525 80 0 80 0 0 525 0 525
205 0 205 0 0 70 0 70 -490 0 -490 0 0 -70z"/>
<path d="M3970 2395 l0 -595 75 0 75 0 0 595 0 595 -75 0 -75 0 0 -595z"/>
<path d="M7770 2395 l0 -595 80 0 80 0 0 270 0 270 318 -2 317 -3 3 -267 2
-268 75 0 75 0 0 595 0 595 -75 0 -75 0 0 -255 0 -255 -320 0 -320 0 0 255 0
255 -80 0 -80 0 0 -595z"/>
<path d="M9407 2978 c-3 -7 -112 -267 -242 -578 -130 -311 -239 -573 -242
-583 -5 -16 2 -18 78 -15 l84 3 71 175 72 175 245 3 244 2 74 -180 74 -180 84
0 c63 0 82 3 78 13 -3 6 -112 269 -242 582 -131 314 -239 576 -242 583 -3 8
-27 12 -68 12 -41 0 -65 -4 -68 -12z m173 -457 c50 -123 89 -225 87 -227 -2
-3 -92 -3 -199 -2 l-195 3 93 225 c52 124 96 232 99 240 9 21 9 20 115 -239z"/>
<path d="M10163 2618 c4 -408 10 -456 65 -568 58 -115 139 -188 260 -232 83
-31 272 -31 357 1 128 47 219 134 270 259 45 111 55 215 55 580 l0 333 -77 -3
-77 -3 -2 -333 c-2 -341 -5 -391 -30 -476 -50 -173 -194 -260 -384 -234 -134
18 -221 104 -267 265 -13 47 -17 125 -20 421 l-5 362 -75 0 -74 0 4 -372z"/>
</g>
</svg>
