<?xml version="1.0"?>
<svg xmlns="http://www.w3.org/2000/svg" viewBox="0 0 64 64" width="512" height="512" fill="#fff"><g id="Project"><path d="M21,46H37a1,1,0,0,0,1-1V32a1,1,0,0,0-.4-.8l-8-6a1,1,0,0,0-1.2,0l-8,6a1,1,0,0,0-.4.8V45A1,1,0,0,0,21,46Zm6-2V38h4v6ZM22,32.5l7-5.25,7,5.25V44H33V37a1,1,0,0,0-1-1H26a1,1,0,0,0-1,1v7H22Z"/><path d="M46,17H12a1,1,0,0,0-1,1V52a1,1,0,0,0,1,1H46a1,1,0,0,0,1-1V18A1,1,0,0,0,46,17ZM45,51H13V19H45Z"/><path d="M62.923,1.618a1,1,0,0,0-.541-.541A1.01,1.01,0,0,0,62,1H2A1,1,0,0,0,1,2V12a1,1,0,0,0,1,1H51V62a1,1,0,0,0,1,1H62a1,1,0,0,0,1-1V2A.991.991,0,0,0,62.923,1.618ZM53,61V58h4a1,1,0,0,0,0-2H53V53h2a1,1,0,0,0,0-2H53V48h4a1,1,0,0,0,0-2H53V43h2a1,1,0,0,0,0-2H53V38h4a1,1,0,0,0,0-2H53V33h2a1,1,0,0,0,0-2H53V28h4a1,1,0,0,0,0-2H53V23h2a1,1,0,0,0,0-2H53V18h4a1,1,0,0,0,0-2H53V12.414l2.707-2.707a1,1,0,0,0-1.414-1.414L51.586,11H48V7a1,1,0,0,0-2,0v4H43V9a1,1,0,0,0-2,0v2H38V7a1,1,0,0,0-2,0v4H33V9a1,1,0,0,0-2,0v2H28V7a1,1,0,0,0-2,0v4H23V9a1,1,0,0,0-2,0v2H18V7a1,1,0,0,0-2,0v4H13V9a1,1,0,0,0-2,0v2H8V7A1,1,0,0,0,6,7v4H3V3H59.586L57.293,5.293a1,1,0,1,0,1.414,1.414L61,4.414V61Z"/><path d="M59,21H58a1,1,0,0,0,0,2h1a1,1,0,0,0,0-2Z"/></g></svg>
