<svg height="481pt" viewBox="0 -21 481.954 481" width="481pt" xmlns="http://www.w3.org/2000/svg" fill="#fff"><path d="m296.878906 206.59375c2.878906 2.761719 7.351563 2.976562 10.484375.507812l54.058594-42.578124 67.589844 52.53125-34.589844 2.46875c-4.296875.304687-7.582031 3.957031-7.429687 8.261718.148437 4.304688 3.683593 7.71875 7.988281 7.71875.195312 0 .386719-.007812.582031-.019531l55.347656-3.953125c2.121094-.152344 4.097656-1.144531 5.488282-2.757812 1.390624-1.613282 2.078124-3.714844 1.917968-5.835938l-3.953125-51.394531c-.339843-4.40625-4.1875-7.703125-8.589843-7.363281-4.40625.339843-7.703126 4.183593-7.363282 8.589843l2.5625 33.316407-74.671875-58.035157c-2.902343-2.257812-6.972656-2.246093-9.859375.03125l-53.5 42.144531-51.644531-49.539062c-3.191406-3.0625-8.257813-2.957031-11.316406.230469-3.0625 3.191406-2.957031 8.257812.230469 11.320312zm0 0"/><path d="m473.953125 424.035156h-37.953125v-94.257812c0-4.417969-3.921875-7.742188-8.339844-7.742188h-77.21875c-4.417968 0-8.441406 3.324219-8.441406 7.742188v94.257812h-49v-166.453125c0-4.417969-3.847656-7.546875-8.265625-7.546875h-77.21875c-2.023437-.082031-3.988281.6875-5.417969 2.121094-1.429687 1.433594-2.191406 3.402344-2.097656 5.425781v166.453125h-50v-205.21875c-.050781-2.117187-.945312-4.128906-2.480469-5.589844-1.539062-1.457031-3.589843-2.246093-5.710937-2.191406h-77.21875c-2.054688-.03125-4.035156.785156-5.472656 2.253906-1.433594 1.472657-2.203126 3.472657-2.117188 5.527344v205.21875h-41v-367.003906c0-4.417969-3.582031-8-8-8s-8 3.582031-8 8v374.566406c0 4.421875 3.628906 8.4375 8.046875 8.4375h465.90625c4.417969 0 8-3.578125 8-8 0-4.417968-3.582031-8-8-8zm-400.953125 0v-197h61v197zm143 0v-158h61v158zm142 0v-86h62v86zm0 0"/><path d="m130.15625 138.128906c-.382812-.058594-.769531-.089844-1.15625-.09375-.265625 0-.535156.015625-.800781.042969-8.132813-.777344-14.347657-7.609375-14.359375-15.78125 0-4.417969-3.582032-8-8-8-4.417969 0-8 3.582031-8 8 .019531 14.238281 9.46875 26.738281 23.160156 30.640625v7.097656c0 4.421875 3.582031 8 8 8s8-3.578125 8-8v-6.738281c15.738281-3.707031 26.203125-18.621094 24.332031-34.679687-1.867187-16.0625-15.46875-28.175782-31.640625-28.175782-8.757812 0-15.855468-7.097656-15.855468-15.855468 0-8.757813 7.097656-15.855469 15.855468-15.855469 8.757813 0 15.855469 7.101562 15.855469 15.859375 0 4.417968 3.582031 8 8 8s8-3.582032 8-8c-.019531-15.15625-10.695313-28.207032-25.546875-31.226563v-7.328125c0-4.417968-3.582031-8-8-8s-8 3.582032-8 8v8.210938c-14.957031 4.773437-24.207031 19.734375-21.789062 35.25 2.417968 15.511718 15.78125 26.953125 31.480468 26.949218 8.660156.003907 15.710938 6.957032 15.839844 15.613282.125 8.660156-6.722656 15.816406-15.375 16.074218zm0 0"/><path d="m129.691406 197.535156c54.417969 0 98.53125-44.113281 98.53125-98.527344 0-54.417968-44.113281-98.53125-98.53125-98.53125-54.417968 0-98.53125 44.113282-98.53125 98.53125.0625 54.390626 44.140625 98.46875 98.53125 98.527344zm0-181.058594c45.582032 0 82.53125 36.949219 82.53125 82.53125 0 45.578126-36.949218 82.527344-82.53125 82.527344-45.578125 0-82.53125-36.949218-82.53125-82.527344.050782-45.558593 36.972656-82.480468 82.53125-82.53125zm0 0"/></svg>