<svg height="682pt" viewBox="-43 -21 682 682.66669" width="682pt" xmlns="http://www.w3.org/2000/svg" fill="#fff"><path d="m575.570312 137.519531c-26.375-26.363281-69.265624-26.363281-95.667968.039063l-29.050782 29.195312v-166.753906h-317.800781l-134.21875 134.21875v505.78125h452.019531v-281.507812l124.71875-125.335938c26.363282-26.363281 26.363282-69.257812 0-95.636719zm-203.152343 246.65625-42.628907-42.621093 122.714844-123.316407 42.625 42.621094zm-69.375-15.742187.3125-.3125 42.621093 42.625-.339843.34375-53.777344 11.167968zm-161.679688-323.738282v97.835938h-97.832031zm272.007813 557.820313h-377.050782v-422.507813h142.523438v-142.523437h234.527344v166.9375l-50.457032 50.699219h-268.964843v37.488281h231.671875l-50.980469 51.226563h-180.691406v37.488281h168.125l-10.648438 51.230469h-157.480469v37.480468h152.238282l118.09375-24.535156 49.09375-49.335938zm135.664062-395.828125-27.46875 27.601562-42.621094-42.625 27.496094-27.632812c11.742188-11.757812 30.875-11.757812 42.617188 0 11.757812 11.746094 11.757812 30.875-.023438 42.65625zm0 0"/></svg>